<?xml version="1.0" standalone="no"?>
<!DOCTYPE svg PUBLIC "-//W3C//DTD SVG 20010904//EN"
 "http://www.w3.org/TR/2001/REC-SVG-20010904/DTD/svg10.dtd">
<svg version="1.0" xmlns="http://www.w3.org/2000/svg"
 width="1920.000000pt" height="1920.000000pt" viewBox="0 0 1920.000000 1920.000000"
 preserveAspectRatio="xMidYMid meet">

<g transform="translate(0.000000,1920.000000) scale(0.100000,-0.100000)"
fill="#000000" stroke="none">
<path d="M0 9600 l0 -9600 9600 0 9600 0 0 9600 0 9600 -9600 0 -9600 0 0
-9600z m4655 2412 c0 -80 -4 -103 -21 -132 -27 -47 -66 -66 -104 -50 -79 33
-106 268 -48 413 l11 29 81 -81 81 -81 0 -98z m10085 156 c19 -96 8 -222 -26
-294 -32 -68 -107 -65 -148 6 -17 29 -21 52 -21 132 l0 97 80 81 c77 77 80 79
91 57 7 -12 17 -48 24 -79z m-12861 -364 c296 -100 483 -235 527 -380 44 -148
-88 -273 -237 -222 -96 32 -172 118 -264 300 -35 67 -81 139 -115 178 -84 97
-100 120 -100 146 0 35 32 31 189 -22z m15631 22 c0 -26 -16 -49 -100 -146
-34 -39 -80 -111 -115 -178 -92 -182 -168 -268 -264 -300 -149 -51 -281 74
-237 222 44 144 231 279 527 380 156 53 189 57 189 22z m-15567 -3144 c655
-438 1412 -831 2265 -1177 l142 -58 0 -1585 0 -1585 -22 19 c-686 578 -1390
1463 -1861 2339 -291 541 -508 1202 -627 1915 -11 69 -24 146 -29 173 -4 26
-6 47 -4 47 2 0 63 -40 136 -88z m15446 41 c-5 -27 -18 -104 -29 -173 -119
-713 -336 -1374 -627 -1915 -471 -876 -1175 -1761 -1860 -2339 l-23 -19 0
1585 0 1585 143 58 c856 348 1660 767 2282 1189 61 41 113 75 116 75 3 1 2
-20 -2 -46z m-12177 -1583 c539 -181 1140 -351 1560 -442 l108 -23 0 -1225 c1
-2044 0 -2604 -4 -2607 -1 -2 -79 28 -172 66 -614 250 -1243 579 -1744 913
-164 110 -412 292 -523 385 l-58 48 1 1588 c0 873 0 1588 0 1590 0 2 100 -34
223 -80 122 -46 396 -142 609 -213z m9608 -1296 l1 -1589 -58 -48 c-464 -387
-1250 -855 -1968 -1172 -167 -74 -467 -196 -471 -192 -4 3 -5 563 -4 2607 l0
1225 108 23 c577 125 1513 407 2167 655 121 45 221 82 223 82 1 -1 2 -717 2
-1591z m-7245 696 c402 -67 800 -119 1115 -145 41 -3 93 -8 115 -10 78 -8 413
-25 595 -30 l185 -6 0 -2022 0 -2022 -155 2 c-691 10 -1484 162 -2290 438 -91
32 -180 63 -197 71 l-33 13 0 1919 0 1919 213 -43 c116 -24 320 -61 452 -84z
m4707 -3712 c-5 -5 -93 -38 -196 -73 -821 -284 -1616 -438 -2316 -448 l-155
-2 0 2022 0 2022 185 6 c182 5 517 22 595 30 22 2 74 7 115 10 443 37 1066
127 1565 228 l210 43 3 -1915 c1 -1053 -2 -1919 -6 -1923z"/>
</g>
</svg>
